<svg xmlns="http://www.w3.org/2000/svg" xml:space="preserve" width="170px" version="1.1" style="shape-rendering:geometricPrecision; text-rendering:geometricPrecision; image-rendering:optimizeQuality; fill-rule:evenodd; clip-rule:evenodd" viewBox="0 0 21773.25 5455.09" xmlns:xlink="http://www.w3.org/1999/xlink">
 <defs>
  <style type="text/css">
   
    .fil1 {fill:#8ABE2E;fill-rule:nonzero}
    .fil0 {fill:#007F3A;fill-rule:nonzero}
   
  </style>
 </defs>
 <g id="Слой_x0020_1">
  <metadata id="CorelCorpID_0Corel-Layer"></metadata>
  <g id="_486240051344">
   <path class="fil0" d="M14544.09 3765.4c-116.31,24.59 -286.45,36.35 -510.91,36.35 -184.58,0 -330.63,-32.96 -438.99,-99.58 -108.07,-66.46 -162.49,-186.97 -162.49,-360.33 0,-88.21 20.11,-162.94 60.54,-221.73 39.79,-57.93 93.06,-103.31 159.27,-135.47 66.09,-32.51 140.09,-54.6 222.27,-66.56 82.24,-12.27 163.39,-18.25 243.44,-18.25 92.12,0 176.14,5.98 252.63,18.25 75.78,11.96 134.08,23.73 174.26,36.09l0 811.22zm640.06 -1952.8c-42.31,-155.86 -111.94,-287.94 -210.26,-396.38 -98.17,-108.99 -229.77,-194.31 -393.5,-254.7 -164.58,-60.42 -366.84,-90.78 -607.74,-90.78 -200.42,0 -388.43,16 -564.77,48.71 -176.74,31.81 -310.67,64.42 -402.99,97.07l90.73 593.18c87.6,-32.26 201.86,-60.68 342.35,-84.7 140.09,-24.24 294.29,-36.3 462.58,-36.3 124.65,0 227.55,15.9 309.98,48.46 82.04,32.51 147.84,77.48 198.14,136.17 50.16,58.18 84.77,126.33 105.08,202.68 19.96,76.74 30.34,157.65 30.34,242.01l0 121.91c-100.17,-24.79 -194.72,-41.79 -282.52,-52.46 -88.19,-9.32 -172.32,-14.65 -252.61,-14.65 -171.98,0 -337.75,17.24 -495.96,51.34 -158.31,34.86 -297.51,91.11 -417.38,170.13 -120.38,78.37 -215.48,179.79 -285.74,305.53 -69.77,124.8 -105.04,278.12 -105.04,460.12 0,189.85 31.05,349.56 93.17,478.3 61.72,129.68 148.23,234.7 258.17,315.16 110.2,80.54 243.29,139.02 399.86,175.51 156.13,36.45 328.76,54.75 516.61,54.75 285,0 540.26,-17.35 766.86,-51.41 226.05,-34.79 395.23,-64.01 508.11,-87.99l0 -1920.26c0,-185.38 -21.2,-355.99 -63.46,-511.4z"></path>
   <path class="fil0" d="M8927.24 3765.4c-116.36,24.59 -286.88,36.35 -511.35,36.35 -184.59,0 -330.45,-32.96 -438.89,-99.58 -108.16,-66.46 -161.84,-186.97 -161.84,-360.33 0,-88.21 19.76,-162.94 60.14,-221.73 40.17,-57.93 92.61,-103.31 158.96,-135.47 66.64,-32.51 140.58,-54.6 222.22,-66.56 82.38,-12.27 163.48,-18.25 244.03,-18.25 91.57,0 176.05,5.98 252.12,18.25 76.13,11.96 134.09,23.73 174.61,36.09l0 811.22zm429.76 -2349.19c-98.72,-108.99 -229.47,-194.31 -393.65,-254.7 -164.87,-60.42 -366.98,-90.78 -607.63,-90.78 -199.93,0 -388.15,16 -564.69,48.71 -176.5,31.81 -310.67,64.42 -403.14,97.07l90.53 593.18c88.11,-32.26 202.46,-60.68 342.41,-84.7 140.54,-24.24 294.39,-36.3 463.18,-36.3 124.04,0 227.39,15.9 309.57,48.46 82.04,32.51 148.09,77.48 198.04,136.17 50.16,58.18 85.22,126.33 105.18,202.68 20.17,76.74 30.44,157.65 30.44,242.01l0 121.91c-100.21,-24.79 -194.62,-41.79 -282.23,-52.46 -88.84,-9.32 -172.65,-14.65 -253.01,-14.65 -172.47,0 -337.69,17.24 -496.06,51.34 -157.61,34.86 -297.41,91.11 -417.54,170.13 -120.32,78.37 -215.47,179.79 -285.24,305.53 -70.53,124.8 -105.38,278.12 -105.38,460.12 0,189.85 30.78,349.56 92.86,478.3 62.27,129.68 148.47,234.7 258.78,315.16 110.09,80.54 243.32,139.02 399.55,175.51 156.48,36.45 328.76,54.75 516.72,54.75 284.65,0 540.14,-17.35 766.55,-51.41 226.39,-34.79 395.84,-64.01 508.26,-87.99l0 -1920.26c0,-185.38 -21.06,-355.99 -63.32,-511.4 -41.96,-155.86 -112.37,-287.94 -210.21,-396.38z"></path>
   <polygon class="fil0" points="9880.17,1755.2 10889.95,1755.2 10889.95,4310.57 11617.52,4310.57 11617.52,1755.2 12633.26,1755.2 12633.26,1143.86 9880.17,1143.86 "></polygon>
   <path class="fil0" d="M3587.76 4310.69l863.88 0c442.48,-835.3 656.75,-1633.07 782.35,-2512.79l589.46 0 0 2512.79 745.24 0 0 -3167.41 -2043.36 0c-58.54,994.71 -365.2,2195.54 -937.57,3167.41z"></path>
   <path class="fil0" d="M2728.61 3624.47c-167.95,54.6 -386.46,81.82 -654.67,81.82 -224.76,0 -417.15,-37.4 -577.15,-111.94 -160.41,-74.89 -292.56,-179.4 -396.79,-314.57 -104.43,-135.61 -181.65,-295.92 -231.46,-481.3 -50.16,-185.87 -75.19,-389.45 -75.19,-612.33 0,-250.64 32.03,-470.08 96.34,-660.29 64.05,-189.47 153.05,-346.88 267.22,-471.88 114.37,-124.94 249.74,-219.58 405.82,-281.76 156.03,-62.52 324.44,-93.93 504.75,-93.93 208.67,0 401.71,27.38 580.43,81.73 178.19,54.24 315.48,111.82 411.59,173.01l222.27 -624.2c-28.05,-16.3 -76.02,-42.32 -144.25,-78.48 -67.99,-35.99 -153.95,-70.5 -258.24,-103.15 -104.43,-32.41 -226.25,-61.48 -366.98,-88.21 -140.18,-26.18 -296.72,-38.99 -468.88,-38.99 -284.31,0 -550.83,47.97 -799.23,145.64 -248.6,96.52 -464.66,239.02 -649.25,426.9 -184.53,187.47 -329.6,416.78 -435.82,686.97 -105.93,270.68 -159.1,581.31 -159.1,932.87 0,351.71 46.02,662.4 138.4,932.59 92.12,270.68 224.42,499.5 396.58,687.31 172.47,187.88 382.68,329.92 631.47,427.21 247.85,96.52 529.02,145.34 841.14,145.34 160.2,0 310.77,-8.87 451.16,-27.32 139.59,-17.95 266.22,-42.28 378.81,-72.6 111.88,-30.77 208.52,-61.73 291.25,-94.48 82.1,-31.81 147,-63.93 194.86,-96.48l-203.84 -623.79c-92.47,47.76 -222.63,99.86 -391.22,154.31z"></path>
   <path class="fil1" d="M17719.6 1812.54c677.37,-1011.66 1813.83,-1504.27 2861.7,-1345.62 -432.33,-294.57 -953.81,-466.69 -1515.17,-466.69 -1495.07,0 -2707.07,1221.02 -2707.07,2727.33 0,942.06 474.01,1772.52 1194.77,2262.5 -539.02,-919.33 -511.7,-2165.67 165.76,-3177.53z"></path>
   <path class="fil0" d="M21682.53 2027.18l0.39 0c-1.18,-4.69 -2.77,-9.32 -4.07,-14.16 -7.64,-28.71 -15.95,-57.24 -24.63,-85.56 -2.73,-9.08 -5.26,-18.25 -8.15,-27.22 -10.87,-34.2 -22.29,-68.16 -34.41,-101.87 -0.94,-2.69 -1.89,-5.63 -2.83,-8.32 -13.51,-36.95 -27.71,-73.5 -42.56,-109.64 -3.12,-7.53 -6.45,-14.76 -9.63,-22.2 -11.53,-27.32 -23.49,-54.6 -36,-81.56 -5.76,-12.37 -11.82,-24.73 -17.68,-37.2 -10.49,-21.53 -21.06,-42.98 -32.03,-64.17 -7.15,-13.96 -14.36,-27.77 -21.65,-41.44 -10.49,-19.55 -21.06,-38.79 -32.03,-57.99 -8.09,-14.16 -15.99,-28.28 -24.28,-42.34 -11.27,-18.85 -22.8,-37.44 -34.53,-56.03 -8.33,-13.51 -16.48,-27.02 -25.07,-40.39 -14.51,-22.24 -29.5,-44.17 -44.55,-65.91 -5.87,-8.28 -11.18,-16.9 -16.99,-25.08 -202.41,-48.61 -413.42,-74.38 -630.63,-74.38 -56.12,0 -111.68,2.24 -166.95,5.67 -3.83,0.21 -7.85,0.11 -11.72,0.41 0,0.04 0.15,0.25 0.15,0.39 -1411.79,92.74 -2528.54,1275.12 -2528.54,2720.96 0,427.9 98.03,832.85 272.34,1193.39 -8.6,-1067.85 635.49,-2132.3 1725.27,-2665.5 258.09,-126.25 523.87,-213.85 790.24,-265.8 33.92,365.27 5.02,746.45 -96.19,1126.93 -304.86,1146.58 -1179.27,1971.16 -2185.73,2193.38 201.01,48.02 410.43,73.54 626.11,73.54 1494.96,0 2707.05,-1221.12 2707.05,-2727.53 0,-242.17 -31.88,-476.81 -90.73,-700.38z"></path>
  </g>
 </g>
</svg>